<?xml version="1.0" encoding="UTF-8"?>
<svg id="Layer_1" data-name="Layer 1" xmlns="http://www.w3.org/2000/svg" version="1.1" viewBox="0 0 71.83 47.48">
  <defs>
    <style>
      .cls-1 {
        fill: #fff;
        stroke-width: 0px;
      }
    </style>
  </defs>
  <path id="path3" class="cls-1" d="M12.28,38.63h3.44c2.23,0,4.36-1.99,4.36-5.82s-2.12-5.66-4.36-5.66h-3.44v11.48ZM12.28,18.83h2.99c2.5,0,3.89-2.24,3.89-4.75,0-2.65-1.39-4.88-3.89-4.88h-2.99v9.63ZM0,.33h18.57c8.77,0,12.86,4.72,12.86,11.77,0,5.01-2.17,9.49-7.38,10.56v.13c6.2.59,8.73,5.86,8.73,10.74,0,8.2-3.99,13.94-14.2,13.94H0V.33h0Z"/>
  <path id="path4" class="cls-1" d="M52.7,9.99h-.15l-3.35,19.98h6.89l-3.39-19.98ZM44.91.33h15.43l11.49,47.15h-13.07l-1.24-8.27h-9.78l-1.25,8.27h-13.04L44.91.33Z"/>
</svg>