<?xml version="1.0" encoding="utf-8"?>
<!-- Generator: Adobe Illustrator 28.1.0, SVG Export Plug-In . SVG Version: 6.00 Build 0)  -->
<svg version="1.1" id="Layer_1" xmlns="http://www.w3.org/2000/svg" xmlns:xlink="http://www.w3.org/1999/xlink" x="0px" y="0px"
	 viewBox="0 0 359.8 49.8" style="enable-background:new 0 0 359.8 49.8;" xml:space="preserve">
<style type="text/css">
	.st0{clip-path:url(#SVGID_00000039828686414049141490000002988066724037217430_);fill:#FFFFFF;}
	.st1{clip-path:url(#SVGID_00000054223380574577361790000002625645747009444775_);fill:#FFFFFF;}
	.st2{fill:#FFFFFF;}
	.st3{clip-path:url(#SVGID_00000078746971961313827300000008606645262984872851_);fill:#FFFFFF;}
	.st4{clip-path:url(#SVGID_00000121256227217129383480000016275129038001874092_);fill:#FFFFFF;}
	.st5{clip-path:url(#SVGID_00000078758380903504626380000013026712406037982375_);fill:#FFFFFF;}
	.st6{clip-path:url(#SVGID_00000154386847479519876190000001023730454745912497_);fill:#FFFFFF;}
</style>
<g>
	<g>
		<defs>
			<rect id="SVGID_1_" x="-0.1" y="0.5" width="360" height="49"/>
		</defs>
		<clipPath id="SVGID_00000065779158999984111730000001385353743391211163_">
			<use xlink:href="#SVGID_1_"  style="overflow:visible;"/>
		</clipPath>
		<path style="clip-path:url(#SVGID_00000065779158999984111730000001385353743391211163_);fill:#FFFFFF;" d="M12.1,39.8h3.4
			c2.2,0,4.4-2,4.4-5.8c0-3.6-2.1-5.7-4.4-5.7h-3.4V39.8z M12.1,20h3c2.5,0,3.9-2.2,3.9-4.8c0-2.6-1.4-4.9-3.9-4.9h-3V20z M-0.1,1.5
			h18.5c8.8,0,12.9,4.7,12.9,11.8c0,5-2.2,9.5-7.4,10.6v0.1c6.2,0.6,8.7,5.9,8.7,10.7c0,8.2-3.9,13.9-14.2,13.9H-0.1V1.5z"/>
	</g>
	<g>
		<defs>
			<rect id="SVGID_00000066474209234037444740000017785367855742475140_" x="-0.1" y="0.5" width="360" height="49"/>
		</defs>
		<clipPath id="SVGID_00000080921218114911823670000002281680541063192243_">
			<use xlink:href="#SVGID_00000066474209234037444740000017785367855742475140_"  style="overflow:visible;"/>
		</clipPath>
		<path style="clip-path:url(#SVGID_00000080921218114911823670000002281680541063192243_);fill:#FFFFFF;" d="M53,41.2
			c3.8,0,4.2-3.5,4.2-16.2c0-12.7-0.4-16.2-4.2-16.2c-3.8,0-4.2,3.5-4.2,16.2C48.8,37.8,49.2,41.2,53,41.2 M53,0.5
			c12.6,0,16.8,6.9,16.8,24.5S65.5,49.5,53,49.5c-12.6,0-16.8-6.9-16.8-24.5C36.1,7.4,40.4,0.5,53,0.5"/>
	</g>
</g>
<polygon class="st2" points="74.4,1.5 91.9,1.5 96.9,29.4 97,29.4 102,1.5 119.5,1.5 119.5,48.6 108.1,48.6 108.1,13.5 107.9,13.5 
	101.4,48.6 92.6,48.6 86,13.5 85.9,13.5 85.9,48.6 74.4,48.6 "/>
<g>
	<g>
		<defs>
			<rect id="SVGID_00000031189403508361310260000012112346161727097531_" x="-0.1" y="0.5" width="360" height="49"/>
		</defs>
		<clipPath id="SVGID_00000067932116002756464940000003320598797554539188_">
			<use xlink:href="#SVGID_00000031189403508361310260000012112346161727097531_"  style="overflow:visible;"/>
		</clipPath>
		<path style="clip-path:url(#SVGID_00000067932116002756464940000003320598797554539188_);fill:#FFFFFF;" d="M137.2,39.8h3.4
			c2.2,0,4.4-2,4.4-5.8c0-3.6-2.1-5.7-4.4-5.7h-3.4V39.8z M137.2,20h3c2.5,0,3.9-2.2,3.9-4.8c0-2.6-1.4-4.9-3.9-4.9h-3V20z
			 M124.9,1.5h18.6c8.8,0,12.9,4.7,12.9,11.8c0,5-2.2,9.5-7.4,10.6v0.1c6.2,0.6,8.7,5.9,8.7,10.7c0,8.2-4,13.9-14.2,13.9h-18.6
			L124.9,1.5L124.9,1.5z"/>
	</g>
</g>
<path class="st2" d="M177.6,11.1h-0.1l-3.4,20h6.9L177.6,11.1z M169.9,1.5h15.4l11.5,47.1h-13.1l-1.2-8.3h-9.8l-1.2,8.3h-13
	L169.9,1.5z"/>
<g>
	<g>
		<defs>
			<rect id="SVGID_00000087400806858486588960000016069370328097459878_" x="-0.2" y="0.8" width="360" height="49"/>
		</defs>
		<clipPath id="SVGID_00000091699300594606112650000014469629376225720456_">
			<use xlink:href="#SVGID_00000087400806858486588960000016069370328097459878_"  style="overflow:visible;"/>
		</clipPath>
		<path style="clip-path:url(#SVGID_00000091699300594606112650000014469629376225720456_);fill:#FFFFFF;" d="M212.4,21.7h2.4
			c3.5,0,5.1-2.2,5.1-5.6c0-3.8-1.5-5.5-5.2-5.5h-2.4L212.4,21.7L212.4,21.7z M200.1,1.7h19.2c9.4,0,12.9,5.3,12.9,12.6
			c0,6.3-2.5,10.3-8,11.2v0.1c5.9,0.5,7.7,4.3,7.7,10.6v4c0,2.4,0,5.6,0.6,6.6c0.4,0.5,0.6,1,1.4,1.4v0.7h-13.1
			c-1.2-2.5-1.2-7-1.2-9v-3.2c0-5.4-1.1-6.7-4-6.7h-3.2v18.9h-12.3L200.1,1.7L200.1,1.7z"/>
	</g>
	<g>
		<defs>
			<rect id="SVGID_00000132046244338957795610000014051657378270828692_" x="-0.2" y="0.8" width="360" height="49"/>
		</defs>
		<clipPath id="SVGID_00000111151609020856896700000006456651960742712983_">
			<use xlink:href="#SVGID_00000132046244338957795610000014051657378270828692_"  style="overflow:visible;"/>
		</clipPath>
		<path style="clip-path:url(#SVGID_00000111151609020856896700000006456651960742712983_);fill:#FFFFFF;" d="M249.8,40h2.5
			c4.7,0,5.3-2,5.3-14.7s-0.6-14.7-5.3-14.7h-2.5V40z M237.5,1.7h17.8c14.2,0,14.9,11.2,14.9,23.6c0,12.4-0.7,23.6-14.9,23.6h-17.8
			V1.7z"/>
	</g>
</g>
<rect x="275.3" y="1.5" class="st2" width="12.3" height="47.1"/>
<polygon class="st2" points="293.1,1.5 321,1.5 321,11.5 305.3,11.5 305.3,19.6 320,19.6 320,29.2 305.3,29.2 305.3,38.6 
	321.6,38.6 321.6,48.6 293.1,48.6 "/>
<g>
	<g>
		<defs>
			<rect id="SVGID_00000061459709626734612320000008174504876236965289_" x="-0.1" y="0.5" width="360" height="49"/>
		</defs>
		<clipPath id="SVGID_00000038380188076430734970000008510683572007061427_">
			<use xlink:href="#SVGID_00000061459709626734612320000008174504876236965289_"  style="overflow:visible;"/>
		</clipPath>
		<path style="clip-path:url(#SVGID_00000038380188076430734970000008510683572007061427_);fill:#FFFFFF;" d="M338.3,21.4h2.5
			c3.5,0,5.1-2.2,5.1-5.6c0-3.8-1.5-5.5-5.2-5.5h-2.4L338.3,21.4L338.3,21.4z M326.1,1.5h19.2c9.4,0,12.9,5.3,12.9,12.6
			c0,6.3-2.4,10.3-8,11.2v0.1c6,0.5,7.7,4.3,7.7,10.6v4c0,2.4,0,5.6,0.6,6.6c0.3,0.5,0.6,1,1.4,1.4v0.7h-13c-1.2-2.5-1.2-7-1.2-9
			v-3.2c0-5.4-1.1-6.7-4-6.7h-3.2v18.9h-12.3L326.1,1.5L326.1,1.5z"/>
	</g>
</g>
</svg>
