<?xml version="1.0" encoding="utf-8"?>
<!-- Generator: Adobe Illustrator 28.1.0, SVG Export Plug-In . SVG Version: 6.00 Build 0)  -->
<svg version="1.1" id="Layer_2" xmlns="http://www.w3.org/2000/svg" xmlns:xlink="http://www.w3.org/1999/xlink" x="0px" y="0px"
	 viewBox="0 0 456 456" style="enable-background:new 0 0 456 456;" xml:space="preserve">
<style type="text/css">
	.st0{fill:#512BD4;}
</style>
<g>
	<path class="st0" d="M420,8.4c-6.9,13.1-24.4,44.8-52.6,95c-16.1,27.8-40.1,67.5-72,119.1l94.3,183.6H269.3l-49.2-81.1
		c-21.4,32.8-38.4,59.8-51,81.1H63.2c9.1-13.8,29.3-46.4,60.3-97.6c12.1-20.7,25.7-44.4,40.9-71c-11.4-18.6-29.8-50-55.2-94
		C81.6,94,57.2,49,36,8.4h178.2c2.2,7.3,7.1,21.4,14.5,42.5C233.1,63,238.7,76,245.5,90c4.3-7.4,11.2-20.1,20.7-38.1
		c5.5-11.2,11.9-25.7,19.2-43.5H420z"/>
</g>
</svg>
