<?xml version="1.0" encoding="utf-8"?>
<!-- Generator: Adobe Illustrator 28.1.0, SVG Export Plug-In . SVG Version: 6.00 Build 0)  -->
<svg version="1.1" id="Layer_1" xmlns:serif="http://www.serif.com/"
	 xmlns="http://www.w3.org/2000/svg" xmlns:xlink="http://www.w3.org/1999/xlink" x="0px" y="0px" viewBox="0 0 456 456"
	 style="enable-background:new 0 0 456 456;" xml:space="preserve">
<style type="text/css">
	.st0{fill:#FFCC02;}
	.st1{fill:url(#SVGID_1_);}
</style>
<g>
	<path class="st0" d="M429,299.6c3.6,7.8,0.1,17.1-7.7,20.6L250,398c-2,0.9-4.2,1.4-6.4,1.4c-1.5,0-3.1-0.2-4.6-0.7L36.6,336.4
		c-8.2-2.5-12.8-11.3-10.3-19.5s11.3-12.9,19.5-10.3l196.7,60.5l165.8-75.4C416.3,288.2,425.4,291.8,429,299.6L429,299.6z"/>
	<path class="st0" d="M242.5,305L45.8,244.4c-8.2-2.6-16.9,2.1-19.5,10.3c-2.5,8.2,2.1,16.9,10.3,19.5L239,336.4
		c1.5,0.5,3,0.7,4.6,0.7c2.2,0,4.4-0.5,6.4-1.4l171.2-77.8c7.8-3.6,11.3-12.8,7.7-20.6c-3.5-7.8-12.7-11.3-20.6-7.7L242.5,305
		L242.5,305z"/>
	<linearGradient id="SVGID_1_" gradientUnits="userSpaceOnUse" x1="199.5363" y1="255.1144" x2="247.1435" y2="73.2542">
		<stop  offset="0.3024" style="stop-color:#FFCC02"/>
		<stop  offset="0.8176" style="stop-color:#F7981D"/>
	</linearGradient>
	<path class="st1" d="M25.7,197.8c-0.3-6.5,3.5-12.6,9.5-15.1l113.7-47.9c22.4-9.4,33-21.2,33-62.6c0-4.8,2.2-9.3,6-12.3
		s8.7-4,13.3-2.9l201.4,49.6c6.9,1.7,11.8,8,11.8,15.1v2.4c0,46,0,76.4-56.4,100.2c-37.7,15.9-107.1,48.6-107.8,49
		c-2.1,1-4.4,1.5-6.6,1.5c-1.5,0-3.1-0.2-4.6-0.7L36.6,211.9C30.4,210,26,204.3,25.7,197.8z M86.7,194.7l155.7,47.9
		c17.3-8.1,71-33.3,103.5-46.9c34.4-14.5,37.1-25.7,37.3-61.7L212.1,91.8c-3,31.9-15.1,56.4-51.2,71.6L86.7,194.7L86.7,194.7z
		 M199.9,205.9c-0.7-0.3-1.4-0.6-2.1-0.8c-2.6-0.8-5.1-1.6-7.9-2.5c1.3-1.2,2.5-2.2,3.7-3.3c5.9-5.7,11.8-11.4,17.8-17.1
		c0.2-0.2,0.7-0.4,1-0.4c3.9,1.1,7.7,2.2,11.5,3.3c0.1,0,0.2,0.1,0.4,0.2c-3.2,3.6-6.3,7.2-9.6,11c1.4-0.3,2.7-0.6,3.9-0.9
		c6.5-1.9,13.1-3.8,19.6-5.7c0.3-0.1,0.6-0.2,0.9-0.1c4,1.2,8.1,2.3,12.4,3.6c-1.2,0.4-2.1,0.8-3,1.1c-12.2,4.3-24.7,7.7-37.5,9.8
		c-3.5,0.6-6.9,1.1-10.4,1.6c-0.2,0-0.3,0.1-0.4,0.2C200,205.9,199.9,205.9,199.9,205.9L199.9,205.9z M274,196.6
		c-4.3-3.6-8.6-7.1-12.9-10.7c-7.7-6.6-15.3-13.3-23-19.8c-4.5-3.7-8.2-7-12.7-10.5c4.3-3.2,7.3-6.4,10-11.4
		c1.1,0.9,4.1,3.7,5.2,4.8c7,6.5,13.9,13,20.8,19.5c6.7,6.4,13.3,12.9,20,19.3c0.7,0.6,1.4,1.3,2.2,2
		C280.9,192.1,277.1,194.7,274,196.6z M255.6,145.6c2.2-1.6,4.5-3,6.7-4.7c5.8-4.5,11.5-9,17.2-13.6c0.8-0.6,1.4-0.8,2.3-0.6
		c2.2,0.6,4.3,1.1,6.5,1.6c0.6,0.1,0.9,0.4,1.1,1c2.3,5.9,3.1,12.1,2.8,18.4c-0.2,2.6-0.5,5.2-0.8,7.9c-3.9-1.1-7.7-2.1-11.5-3.2
		c0.7-4.4,1-8.7,0.5-13.3c-2,1.4-3.9,2.8-5.7,4.1c-2.4,1.7-4.9,3.4-7.3,5.1c-0.3,0.2-0.8,0.4-1.1,0.3c-3.5-0.9-7.1-1.9-10.6-2.9
		C255.7,145.8,255.6,145.7,255.6,145.6L255.6,145.6z"/>
</g>
</svg>
